<mxfile host="app.diagrams.net" modified="2024-05-23T10:10:42.594Z" agent="Mozilla/5.0 (Windows NT 10.0; Win64; x64) AppleWebKit/537.36 (KHTML, like Gecko) Chrome/125.0.0.0 Safari/537.36 Edg/125.0.0.0" etag="zgiebIBiLQ3xnGVTTgjZ" version="24.4.6" type="device">
  <diagram name="Page-1" id="3dFZ9_tYxlU9YT5L-n0_">
    <mxGraphModel dx="746" dy="459" grid="1" gridSize="10" guides="1" tooltips="1" connect="1" arrows="1" fold="1" page="1" pageScale="1" pageWidth="827" pageHeight="1169" math="0" shadow="0">
      <root>
        <mxCell id="0" />
        <mxCell id="1" parent="0" />
        <mxCell id="ej6R-_cVrrOsdgHKNDho-47" value="AWS Cloud" style="sketch=0;outlineConnect=0;gradientColor=none;html=1;whiteSpace=wrap;fontSize=12;fontStyle=0;shape=mxgraph.aws4.group;grIcon=mxgraph.aws4.group_aws_cloud;strokeColor=#AAB7B8;fillColor=none;verticalAlign=top;align=left;spacingLeft=30;fontColor=#AAB7B8;dashed=0;" vertex="1" parent="1">
          <mxGeometry x="90" y="60" width="610" height="370" as="geometry" />
        </mxCell>
        <mxCell id="ej6R-_cVrrOsdgHKNDho-42" value="" style="rounded=0;whiteSpace=wrap;html=1;fillColor=none;dashed=1;" vertex="1" parent="1">
          <mxGeometry x="380" y="240" width="310" height="160" as="geometry" />
        </mxCell>
        <mxCell id="ej6R-_cVrrOsdgHKNDho-41" value="" style="rounded=0;whiteSpace=wrap;html=1;dashed=1;fillColor=none;" vertex="1" parent="1">
          <mxGeometry x="720" y="60" width="110" height="350" as="geometry" />
        </mxCell>
        <mxCell id="ej6R-_cVrrOsdgHKNDho-40" value="" style="rounded=0;whiteSpace=wrap;html=1;dashed=1;fillColor=none;" vertex="1" parent="1">
          <mxGeometry x="100" y="105" width="370" height="115" as="geometry" />
        </mxCell>
        <mxCell id="ej6R-_cVrrOsdgHKNDho-22" value="" style="edgeStyle=orthogonalEdgeStyle;rounded=0;orthogonalLoop=1;jettySize=auto;html=1;" edge="1" parent="1" source="ej6R-_cVrrOsdgHKNDho-2" target="ej6R-_cVrrOsdgHKNDho-3">
          <mxGeometry relative="1" as="geometry" />
        </mxCell>
        <mxCell id="ej6R-_cVrrOsdgHKNDho-2" value="&lt;font style=&quot;font-size: 10px;&quot;&gt;External API&lt;/font&gt;" style="outlineConnect=0;dashed=0;verticalLabelPosition=bottom;verticalAlign=top;align=center;html=1;shape=mxgraph.aws3.http_protocol;fillColor=#5294CF;gradientColor=none;" vertex="1" parent="1">
          <mxGeometry x="10" y="135" width="40" height="40" as="geometry" />
        </mxCell>
        <mxCell id="ej6R-_cVrrOsdgHKNDho-5" value="" style="edgeStyle=orthogonalEdgeStyle;rounded=0;orthogonalLoop=1;jettySize=auto;html=1;" edge="1" parent="1" source="ej6R-_cVrrOsdgHKNDho-3" target="ej6R-_cVrrOsdgHKNDho-4">
          <mxGeometry relative="1" as="geometry" />
        </mxCell>
        <mxCell id="ej6R-_cVrrOsdgHKNDho-3" value="&lt;font style=&quot;font-size: 10px;&quot;&gt;Lambda &lt;/font&gt;Function" style="sketch=0;points=[[0,0,0],[0.25,0,0],[0.5,0,0],[0.75,0,0],[1,0,0],[0,1,0],[0.25,1,0],[0.5,1,0],[0.75,1,0],[1,1,0],[0,0.25,0],[0,0.5,0],[0,0.75,0],[1,0.25,0],[1,0.5,0],[1,0.75,0]];outlineConnect=0;fontColor=#232F3E;fillColor=#ED7100;strokeColor=#ffffff;dashed=0;verticalLabelPosition=bottom;verticalAlign=top;align=center;html=1;fontSize=12;fontStyle=0;aspect=fixed;shape=mxgraph.aws4.resourceIcon;resIcon=mxgraph.aws4.lambda;" vertex="1" parent="1">
          <mxGeometry x="120" y="130" width="50" height="50" as="geometry" />
        </mxCell>
        <mxCell id="ej6R-_cVrrOsdgHKNDho-7" value="" style="edgeStyle=orthogonalEdgeStyle;rounded=0;orthogonalLoop=1;jettySize=auto;html=1;" edge="1" parent="1" source="ej6R-_cVrrOsdgHKNDho-4" target="ej6R-_cVrrOsdgHKNDho-6">
          <mxGeometry relative="1" as="geometry" />
        </mxCell>
        <mxCell id="ej6R-_cVrrOsdgHKNDho-4" value="&lt;font style=&quot;font-size: 10px;&quot;&gt;Amazon &lt;/font&gt;&lt;font style=&quot;font-size: 10px;&quot;&gt;Kinesis&amp;nbsp;&lt;/font&gt;&lt;div style=&quot;&quot;&gt;&lt;font style=&quot;font-size: 10px;&quot;&gt;Data &lt;/font&gt;&lt;font style=&quot;font-size: 10px;&quot;&gt;Firehose&lt;/font&gt;&lt;/div&gt;" style="sketch=0;points=[[0,0,0],[0.25,0,0],[0.5,0,0],[0.75,0,0],[1,0,0],[0,1,0],[0.25,1,0],[0.5,1,0],[0.75,1,0],[1,1,0],[0,0.25,0],[0,0.5,0],[0,0.75,0],[1,0.25,0],[1,0.5,0],[1,0.75,0]];outlineConnect=0;fontColor=#232F3E;fillColor=#8C4FFF;strokeColor=#ffffff;dashed=0;verticalLabelPosition=bottom;verticalAlign=top;align=center;html=1;fontSize=12;fontStyle=0;aspect=fixed;shape=mxgraph.aws4.resourceIcon;resIcon=mxgraph.aws4.kinesis_data_firehose;" vertex="1" parent="1">
          <mxGeometry x="270" y="130" width="50" height="50" as="geometry" />
        </mxCell>
        <mxCell id="ej6R-_cVrrOsdgHKNDho-35" style="edgeStyle=orthogonalEdgeStyle;rounded=0;orthogonalLoop=1;jettySize=auto;html=1;" edge="1" parent="1" source="ej6R-_cVrrOsdgHKNDho-6" target="ej6R-_cVrrOsdgHKNDho-34">
          <mxGeometry relative="1" as="geometry" />
        </mxCell>
        <mxCell id="ej6R-_cVrrOsdgHKNDho-44" value="" style="edgeStyle=orthogonalEdgeStyle;rounded=0;orthogonalLoop=1;jettySize=auto;html=1;" edge="1" parent="1" source="ej6R-_cVrrOsdgHKNDho-6" target="ej6R-_cVrrOsdgHKNDho-15">
          <mxGeometry relative="1" as="geometry" />
        </mxCell>
        <mxCell id="ej6R-_cVrrOsdgHKNDho-6" value="&lt;font style=&quot;font-size: 10px;&quot;&gt;&lt;font style=&quot;font-size: 10px;&quot;&gt;S3 Bucke&lt;/font&gt;t&lt;/font&gt;" style="sketch=0;outlineConnect=0;fontColor=#232F3E;gradientColor=none;fillColor=#7AA116;strokeColor=none;dashed=1;verticalLabelPosition=bottom;verticalAlign=top;align=center;html=1;fontSize=12;fontStyle=0;aspect=fixed;pointerEvents=1;shape=mxgraph.aws4.bucket;" vertex="1" parent="1">
          <mxGeometry x="398.96" y="130" width="48.08" height="50" as="geometry" />
        </mxCell>
        <mxCell id="ej6R-_cVrrOsdgHKNDho-48" value="" style="edgeStyle=orthogonalEdgeStyle;rounded=0;orthogonalLoop=1;jettySize=auto;html=1;" edge="1" parent="1" source="ej6R-_cVrrOsdgHKNDho-10">
          <mxGeometry relative="1" as="geometry">
            <mxPoint x="145" y="210" as="targetPoint" />
          </mxGeometry>
        </mxCell>
        <mxCell id="ej6R-_cVrrOsdgHKNDho-10" value="&lt;font style=&quot;font-size: 10px;&quot;&gt;EventBridge Schedule&lt;/font&gt;" style="sketch=0;points=[[0,0,0],[0.25,0,0],[0.5,0,0],[0.75,0,0],[1,0,0],[0,1,0],[0.25,1,0],[0.5,1,0],[0.75,1,0],[1,1,0],[0,0.25,0],[0,0.5,0],[0,0.75,0],[1,0.25,0],[1,0.5,0],[1,0.75,0]];outlineConnect=0;fontColor=#232F3E;fillColor=#E7157B;strokeColor=#ffffff;dashed=0;verticalLabelPosition=bottom;verticalAlign=top;align=center;html=1;fontSize=12;fontStyle=0;aspect=fixed;shape=mxgraph.aws4.resourceIcon;resIcon=mxgraph.aws4.eventbridge;" vertex="1" parent="1">
          <mxGeometry x="120" y="272" width="50" height="50" as="geometry" />
        </mxCell>
        <mxCell id="ej6R-_cVrrOsdgHKNDho-12" value="&lt;font size=&quot;1&quot;&gt;AWS CloudWatch Logs&lt;/font&gt;" style="sketch=0;points=[[0,0,0],[0.25,0,0],[0.5,0,0],[0.75,0,0],[1,0,0],[0,1,0],[0.25,1,0],[0.5,1,0],[0.75,1,0],[1,1,0],[0,0.25,0],[0,0.5,0],[0,0.75,0],[1,0.25,0],[1,0.5,0],[1,0.75,0]];points=[[0,0,0],[0.25,0,0],[0.5,0,0],[0.75,0,0],[1,0,0],[0,1,0],[0.25,1,0],[0.5,1,0],[0.75,1,0],[1,1,0],[0,0.25,0],[0,0.5,0],[0,0.75,0],[1,0.25,0],[1,0.5,0],[1,0.75,0]];outlineConnect=0;fontColor=#232F3E;fillColor=#E7157B;strokeColor=#ffffff;dashed=0;verticalLabelPosition=bottom;verticalAlign=top;align=center;html=1;fontSize=12;fontStyle=0;aspect=fixed;shape=mxgraph.aws4.resourceIcon;resIcon=mxgraph.aws4.cloudwatch_2;" vertex="1" parent="1">
          <mxGeometry x="265" y="276" width="50" height="50" as="geometry" />
        </mxCell>
        <mxCell id="ej6R-_cVrrOsdgHKNDho-19" value="&lt;font style=&quot;font-size: 10px;&quot;&gt;Grafana&lt;/font&gt;" style="image;aspect=fixed;html=1;points=[];align=center;fontSize=12;image=img/lib/azure2/other/Grafana.svg;" vertex="1" parent="1">
          <mxGeometry x="751.41" y="277" width="61.81" height="48" as="geometry" />
        </mxCell>
        <mxCell id="ej6R-_cVrrOsdgHKNDho-25" value="Data Ingestion" style="text;html=1;align=center;verticalAlign=middle;whiteSpace=wrap;rounded=0;" vertex="1" parent="1">
          <mxGeometry x="250" y="105" width="80" height="30" as="geometry" />
        </mxCell>
        <mxCell id="ej6R-_cVrrOsdgHKNDho-31" value="" style="edgeStyle=orthogonalEdgeStyle;rounded=0;orthogonalLoop=1;jettySize=auto;html=1;" edge="1" parent="1" source="ej6R-_cVrrOsdgHKNDho-18" target="ej6R-_cVrrOsdgHKNDho-19">
          <mxGeometry relative="1" as="geometry" />
        </mxCell>
        <mxCell id="ej6R-_cVrrOsdgHKNDho-34" value="&lt;font style=&quot;font-size: 10px;&quot;&gt;Microsoft &lt;/font&gt;&lt;font style=&quot;font-size: 10px;&quot;&gt;Power&amp;nbsp;&lt;/font&gt;&lt;div style=&quot;&quot;&gt;&lt;font style=&quot;font-size: 10px;&quot;&gt;BI&lt;/font&gt;&lt;/div&gt;" style="image;aspect=fixed;html=1;points=[];align=center;fontSize=12;image=img/lib/azure2/analytics/Power_BI_Embedded.svg;" vertex="1" parent="1">
          <mxGeometry x="762.81" y="129" width="39" height="52" as="geometry" />
        </mxCell>
        <mxCell id="ej6R-_cVrrOsdgHKNDho-43" value="Data&amp;nbsp;&lt;span style=&quot;background-color: initial;&quot;&gt;Visualisation&lt;/span&gt;" style="text;html=1;align=center;verticalAlign=middle;whiteSpace=wrap;rounded=0;" vertex="1" parent="1">
          <mxGeometry x="720" y="75" width="110" height="30" as="geometry" />
        </mxCell>
        <mxCell id="ej6R-_cVrrOsdgHKNDho-18" value="&lt;font size=&quot;1&quot;&gt;AWS Athena&lt;/font&gt;" style="sketch=0;points=[[0,0,0],[0.25,0,0],[0.5,0,0],[0.75,0,0],[1,0,0],[0,1,0],[0.25,1,0],[0.5,1,0],[0.75,1,0],[1,1,0],[0,0.25,0],[0,0.5,0],[0,0.75,0],[1,0.25,0],[1,0.5,0],[1,0.75,0]];outlineConnect=0;fontColor=#232F3E;fillColor=#8C4FFF;strokeColor=#ffffff;dashed=0;verticalLabelPosition=bottom;verticalAlign=top;align=center;html=1;fontSize=12;fontStyle=0;aspect=fixed;shape=mxgraph.aws4.resourceIcon;resIcon=mxgraph.aws4.athena;" vertex="1" parent="1">
          <mxGeometry x="618.0699999999999" y="276" width="50" height="50" as="geometry" />
        </mxCell>
        <mxCell id="ej6R-_cVrrOsdgHKNDho-29" value="" style="edgeStyle=orthogonalEdgeStyle;rounded=0;orthogonalLoop=1;jettySize=auto;html=1;" edge="1" parent="1" source="ej6R-_cVrrOsdgHKNDho-14" target="ej6R-_cVrrOsdgHKNDho-18">
          <mxGeometry relative="1" as="geometry" />
        </mxCell>
        <mxCell id="ej6R-_cVrrOsdgHKNDho-14" value="&lt;font style=&quot;font-size: 10px;&quot;&gt;AWS Glue&lt;/font&gt;&lt;div&gt;&lt;span style=&quot;font-size: 10px;&quot;&gt;Data Catalog&lt;/span&gt;&lt;/div&gt;&lt;div&gt;&lt;span style=&quot;font-size: 10px;&quot;&gt;&lt;br&gt;&lt;/span&gt;&lt;/div&gt;" style="sketch=0;outlineConnect=0;fontColor=#232F3E;gradientColor=none;fillColor=#8C4FFF;strokeColor=none;dashed=0;verticalLabelPosition=bottom;verticalAlign=top;align=center;html=1;fontSize=12;fontStyle=0;aspect=fixed;pointerEvents=1;shape=mxgraph.aws4.glue_data_catalog;" vertex="1" parent="1">
          <mxGeometry x="516.92" y="276" width="46.15" height="50" as="geometry" />
        </mxCell>
        <mxCell id="ej6R-_cVrrOsdgHKNDho-16" value="" style="edgeStyle=orthogonalEdgeStyle;rounded=0;orthogonalLoop=1;jettySize=auto;html=1;" edge="1" parent="1" source="ej6R-_cVrrOsdgHKNDho-15" target="ej6R-_cVrrOsdgHKNDho-14">
          <mxGeometry relative="1" as="geometry" />
        </mxCell>
        <mxCell id="ej6R-_cVrrOsdgHKNDho-45" value="" style="edgeStyle=orthogonalEdgeStyle;rounded=0;orthogonalLoop=1;jettySize=auto;html=1;" edge="1" parent="1" source="ej6R-_cVrrOsdgHKNDho-15" target="ej6R-_cVrrOsdgHKNDho-12">
          <mxGeometry relative="1" as="geometry" />
        </mxCell>
        <mxCell id="ej6R-_cVrrOsdgHKNDho-49" value="" style="edgeStyle=orthogonalEdgeStyle;rounded=0;orthogonalLoop=1;jettySize=auto;html=1;" edge="1" parent="1" source="ej6R-_cVrrOsdgHKNDho-15" target="ej6R-_cVrrOsdgHKNDho-6">
          <mxGeometry relative="1" as="geometry" />
        </mxCell>
        <mxCell id="ej6R-_cVrrOsdgHKNDho-15" value="&lt;font style=&quot;font-size: 10px;&quot;&gt;AWS &lt;/font&gt;&lt;font style=&quot;font-size: 10px;&quot;&gt;Glue&lt;/font&gt;&lt;div style=&quot;&quot;&gt;&lt;font style=&quot;font-size: 10px;&quot;&gt;Crawler&lt;/font&gt;&lt;/div&gt;&lt;div style=&quot;&quot;&gt;&lt;font style=&quot;font-size: 10px;&quot;&gt;Job&lt;/font&gt;&lt;/div&gt;&lt;div style=&quot;&quot;&gt;&lt;font style=&quot;font-size: 10px;&quot;&gt;Workflow&lt;/font&gt;&lt;/div&gt;" style="sketch=0;points=[[0,0,0],[0.25,0,0],[0.5,0,0],[0.75,0,0],[1,0,0],[0,1,0],[0.25,1,0],[0.5,1,0],[0.75,1,0],[1,1,0],[0,0.25,0],[0,0.5,0],[0,0.75,0],[1,0.25,0],[1,0.5,0],[1,0.75,0]];outlineConnect=0;fontColor=#232F3E;fillColor=#8C4FFF;strokeColor=#ffffff;dashed=0;verticalLabelPosition=bottom;verticalAlign=top;align=center;html=1;fontSize=12;fontStyle=0;aspect=fixed;shape=mxgraph.aws4.resourceIcon;resIcon=mxgraph.aws4.glue;" vertex="1" parent="1">
          <mxGeometry x="396" y="274" width="54" height="54" as="geometry" />
        </mxCell>
        <mxCell id="ej6R-_cVrrOsdgHKNDho-30" value="Data Transformation" style="text;html=1;align=center;verticalAlign=middle;whiteSpace=wrap;rounded=0;" vertex="1" parent="1">
          <mxGeometry x="484.04" y="245" width="118.07" height="30" as="geometry" />
        </mxCell>
      </root>
    </mxGraphModel>
  </diagram>
</mxfile>
